<?xml version="1.0" standalone="no"?>
<!DOCTYPE svg PUBLIC "-//W3C//DTD SVG 20010904//EN"
 "http://www.w3.org/TR/2001/REC-SVG-20010904/DTD/svg10.dtd">
<svg version="1.0" xmlns="http://www.w3.org/2000/svg"
 width="1536.000000pt" height="1024.000000pt" viewBox="0 0 1536.000000 1024.000000"
 preserveAspectRatio="xMidYMid meet">

<g transform="translate(0.000000,1024.000000) scale(0.100000,-0.100000)"
fill="#000000" stroke="none">
<path d="M2620 9061 c-114 -25 -210 -63 -295 -116 -80 -49 -187 -156 -233
-231 -17 -28 -43 -57 -58 -64 -38 -21 -125 -118 -156 -177 -45 -82 -62 -164
-61 -293 1 -127 13 -206 49 -321 l24 -77 -25 -51 c-80 -158 -40 -359 96 -486
58 -53 143 -95 194 -95 l25 0 0 -157 c0 -87 -3 -202 -7 -255 l-6 -98 -41 -24
c-23 -13 -81 -59 -131 -101 -80 -69 -116 -90 -330 -194 -500 -245 -660 -352
-766 -514 -85 -130 -147 -341 -194 -652 -15 -99 -43 -279 -62 -400 -19 -121
-37 -248 -40 -282 -5 -59 -4 -63 25 -92 l30 -31 901 0 901 0 0 -288 c0 -267 1
-290 18 -305 25 -23 58 -21 82 3 19 19 20 33 20 305 l0 285 980 0 979 0 3
-752 3 -753 31 -65 c39 -83 111 -155 194 -194 l65 -31 1018 -3 c729 -2 1017
-5 1017 -13 0 -6 -16 -95 -36 -198 -19 -102 -46 -244 -60 -316 -13 -71 -29
-154 -35 -182 l-10 -53 -153 0 c-172 0 -226 -11 -302 -63 -53 -36 -108 -109
-124 -165 -5 -20 -13 -74 -16 -119 -7 -81 -7 -82 24 -112 l30 -31 1491 0 1490
0 28 24 c27 24 28 27 27 119 -1 78 -6 104 -26 148 -31 67 -96 132 -168 167
-52 26 -64 27 -225 30 l-171 4 -75 379 -76 379 1026 2 1026 3 67 32 c85 40
151 106 191 191 l32 67 0 2320 c0 2257 -1 2321 -19 2370 -42 109 -127 195
-232 234 l-55 21 -2852 -2 -2852 -3 -50 -26 c-84 -45 -141 -103 -182 -187
l-38 -76 -5 -1435 c-3 -790 -6 -1418 -8 -1396 -8 139 -83 671 -118 842 -41
203 -70 275 -147 379 -90 118 -194 183 -602 375 -154 72 -286 136 -292 141
-20 16 -16 24 18 39 92 37 198 152 255 275 95 204 161 579 171 970 6 248 -4
424 -33 574 l-14 74 50 51 c66 67 103 150 108 241 7 133 -51 195 -225 240 -29
7 -101 36 -162 63 -265 120 -358 141 -631 147 -174 3 -218 1 -290 -15z m170
-827 c411 -55 602 -55 778 1 42 14 80 25 83 25 21 0 49 -360 42 -550 -14 -404
-81 -786 -167 -958 -46 -91 -131 -183 -195 -210 -188 -82 -408 -37 -682 139
-84 54 -98 56 -123 16 -17 -27 10 -65 94 -130 126 -97 293 -166 442 -183 l60
-7 -6 -61 c-16 -137 -66 -323 -125 -460 l-22 -50 -22 33 c-90 131 -148 200
-247 291 -63 58 -183 173 -267 255 l-152 150 9 125 c5 69 10 231 10 361 0 272
2 266 -80 255 -74 -10 -125 8 -180 63 -108 108 -122 289 -28 383 60 60 106 51
200 -42 49 -49 66 -60 92 -60 19 0 40 8 50 19 53 59 195 499 196 608 0 19 4
22 28 17 15 -2 110 -16 212 -30z m7530 -2724 l0 -1780 -2640 0 -2640 0 0 1780
0 1780 2640 0 2640 0 0 -1780z m-8037 853 c51 -53 162 -159 247 -236 85 -77
156 -143 157 -146 1 -3 -26 -27 -60 -53 -34 -25 -90 -72 -123 -102 l-62 -56
-37 78 c-106 219 -196 416 -225 495 -33 85 -33 88 -14 102 10 8 20 15 22 15 1
0 44 -44 95 -97z m985 -107 c12 -40 26 -104 32 -142 11 -81 13 -265 3 -263 -5
1 -36 32 -71 69 l-62 67 29 122 c17 67 31 144 33 171 2 28 6 50 9 50 3 0 16
-33 27 -74z m-420 -485 l68 -109 17 -238 c20 -275 33 -528 41 -764 l6 -165
-29 75 c-15 41 -56 140 -91 220 -69 160 -292 696 -336 804 l-28 70 45 39 c93
81 214 177 226 177 6 0 43 -49 81 -109z m447 -200 c-11 -228 -53 -560 -111
-871 -19 -101 -34 -194 -34 -207 0 -18 -6 -23 -25 -23 -25 0 -25 1 -25 88 0
189 -39 867 -60 1036 -9 69 -8 70 36 161 24 50 44 97 44 104 0 7 41 -29 90
-80 l91 -94 -6 -114z m7413 -2513 c-3 -177 -4 -185 -31 -240 -16 -32 -45 -71
-65 -88 -79 -65 156 -60 -2942 -58 l-2815 3 -55 31 c-65 37 -114 102 -129 174
-6 28 -11 121 -11 205 l0 155 3026 0 3026 0 -4 -182z"/>
<path d="M2881 7734 c-47 -59 -15 -174 48 -174 45 0 66 33 66 100 0 43 -5 63
-19 79 -27 30 -70 27 -95 -5z"/>
<path d="M3441 7734 c-47 -60 -15 -174 49 -174 46 0 73 43 68 107 -3 32 -12
61 -23 73 -26 29 -69 26 -94 -6z"/>
<path d="M3262 7724 c-31 -21 -28 -51 17 -211 51 -182 65 -243 57 -250 -3 -4
-36 -10 -73 -15 -75 -9 -105 -29 -101 -67 8 -67 156 -70 249 -5 56 39 61 64
33 175 -41 159 -106 351 -125 370 -23 23 -28 23 -57 3z"/>
<path d="M2930 7051 c-17 -34 -11 -50 30 -80 59 -42 152 -65 249 -59 89 5 127
23 137 65 10 38 -27 67 -70 56 -58 -15 -168 -8 -231 15 -73 27 -101 28 -115 3z"/>
<path d="M5255 7108 c-31 -18 -44 -40 -45 -76 0 -73 98 -112 148 -59 66 71
-19 183 -103 135z m96 -25 c13 -16 12 -17 -3 -4 -10 7 -18 15 -18 17 0 8 8 3
21 -13z m-108 -8 c-3 -9 -8 -14 -10 -11 -3 3 -2 9 2 15 9 16 15 13 8 -4z m110
-84 c-10 -9 -12 -9 -5 -1 6 7 13 28 13 45 l2 30 4 -29 c3 -19 -1 -34 -14 -45z
m-126 27 c-3 -8 -6 -5 -6 6 -1 11 2 17 5 13 3 -3 4 -12 1 -19z m24 -35 c13
-16 12 -17 -3 -4 -10 7 -18 15 -18 17 0 8 8 3 21 -13z"/>
<path d="M5517 7109 c-24 -14 -49 -73 -40 -96 14 -41 45 -63 89 -63 52 0 84
33 84 87 0 65 -76 105 -133 72z m5 -25 c-12 -8 -22 -23 -23 -32 0 -11 -2 -13
-6 -4 -6 14 24 52 41 52 6 0 0 -7 -12 -16z m99 -1 c13 -17 13 -17 -6 -3 -11 8
-22 16 -24 17 -2 2 0 3 6 3 6 0 17 -8 24 -17z m16 -55 c-3 -7 -5 -2 -5 12 0
14 2 19 5 13 2 -7 2 -19 0 -25z m-127 -43 c0 -5 -5 -3 -10 5 -5 8 -10 20 -10
25 0 6 5 3 10 -5 5 -8 10 -19 10 -25z m105 -5 c-10 -11 -25 -20 -34 -19 -10 0
-8 4 7 9 12 5 25 17 28 25 4 9 9 13 12 10 3 -2 -3 -14 -13 -25z"/>
<path d="M5789 7091 c-32 -33 -36 -58 -14 -100 16 -32 33 -41 75 -41 16 0 36
3 45 6 19 8 45 55 45 84 0 33 -53 80 -90 80 -22 0 -41 -9 -61 -29z m15 -13
c-10 -13 -20 -25 -21 -27 -2 -2 -3 1 -3 7 0 11 27 42 37 42 3 0 -2 -10 -13
-22z m106 -88 c-6 -11 -13 -20 -16 -20 -2 0 0 9 6 20 6 11 13 20 16 20 2 0 0
-9 -6 -20z"/>
<path d="M7463 6665 c-264 -48 -523 -197 -699 -403 -324 -379 -380 -933 -138
-1357 179 -316 468 -524 834 -602 115 -24 342 -24 460 1 292 60 525 196 706
411 224 265 323 618 269 955 -81 497 -461 887 -964 990 -117 24 -351 26 -468
5z m481 -369 c49 -15 121 -43 159 -62 138 -69 170 -64 -418 -64 l-530 0 45 30
c58 39 199 95 286 114 50 11 110 15 219 12 127 -3 164 -7 239 -30z m-74 -236
c0 -5 -4 -10 -8 -10 -5 0 -43 -29 -85 -65 l-76 -65 -253 0 -253 0 -29 -172
c-16 -95 -32 -180 -35 -188 -3 -8 26 13 64 48 l70 62 179 0 178 0 -6 -22 c-3
-13 -15 -75 -27 -138 -11 -63 -22 -116 -24 -118 -2 -3 -76 93 -90 118 -13 24
8 1 48 -52 l36 -48 10 53 c5 28 16 85 24 124 l14 73 -22 -18 c-13 -9 -47 -38
-77 -64 l-55 -47 -164 -3 -164 -3 -42 -230 c-23 -126 -42 -243 -42 -260 -1
-19 14 -52 39 -90 22 -33 40 -58 41 -55 1 3 24 118 53 255 l51 250 113 3 112
3 0 42 c0 49 -7 63 -35 70 -16 4 -15 5 6 6 32 1 39 -13 39 -80 l0 -49 -114 0
-113 0 -42 -217 c-23 -120 -47 -240 -53 -266 l-10 -48 -67 98 c-37 54 -89 133
-115 176 l-49 78 37 202 c21 111 56 304 79 430 l41 227 408 0 c265 0 408 -3
408 -10z m390 -2 c0 -23 -176 -898 -182 -903 -7 -7 -7 -6 79 430 41 209 76
391 78 405 2 14 4 25 5 25 1 0 3 8 5 18 5 26 -6 19 -74 -46 l-61 -58 -46 -247
c-25 -136 -61 -332 -80 -437 -19 -104 -36 -196 -39 -203 -7 -18 7 -9 92 60
l72 58 195 -2 196 -3 -92 -67 -91 -68 -192 0 -192 0 -71 -56 c-40 -30 -72 -58
-72 -62 0 -4 117 -5 259 -2 l260 5 56 70 c32 39 63 84 70 101 8 17 22 37 31
45 31 24 -24 -64 -93 -151 l-63 -79 -261 -3 c-143 -2 -263 0 -265 4 -4 6 199
1117 212 1161 5 15 20 17 135 17 96 0 129 -3 129 -12z m129 -63 l51 -65 -66 0
c-54 0 -65 3 -60 15 3 8 8 37 12 65 4 27 8 50 9 50 2 0 26 -29 54 -65z m-532
3 c-3 -7 -5 -2 -5 12 0 14 2 19 5 13 2 -7 2 -19 0 -25z m-10 -50 c-3 -7 -5 -2
-5 12 0 14 2 19 5 13 2 -7 2 -19 0 -25z m-28 -137 l-22 -111 -17 48 c-10 26
-25 65 -34 86 -9 22 -15 41 -12 43 2 2 14 -22 26 -54 13 -32 26 -61 30 -66 3
-4 12 23 19 60 19 98 23 114 28 110 2 -3 -6 -55 -18 -116z m-446 92 c-18 -2
-48 -2 -65 0 -18 2 -4 4 32 4 36 0 50 -2 33 -4z m85 0 c-10 -2 -26 -2 -35 0
-10 3 -2 5 17 5 19 0 27 -2 18 -5z m69 1 c-3 -3 -12 -4 -19 -1 -8 3 -5 6 6 6
11 1 17 -2 13 -5z m50 0 c-3 -3 -12 -4 -19 -1 -8 3 -5 6 6 6 11 1 17 -2 13 -5z
m86 -1 c-13 -2 -33 -2 -45 0 -13 2 -3 4 22 4 25 0 35 -2 23 -4z m37 -58 l0
-65 -207 2 -208 3 203 2 202 3 0 60 c0 33 2 60 5 60 3 0 5 -29 5 -65z m807
-72 c12 -38 24 -78 28 -90 l6 -23 -141 0 -142 0 5 23 c3 12 11 52 18 90 l12
67 97 0 96 0 21 -67z m-1220 -40 c-3 -10 -5 -4 -5 12 0 17 2 24 5 18 2 -7 2
-21 0 -30z m-10 -45 c-3 -8 -6 -5 -6 6 -1 11 2 17 5 13 3 -3 4 -12 1 -19z
m1221 -125 c-32 -2 -84 -2 -115 0 -32 2 -6 3 57 3 63 0 89 -1 58 -3z m-441
-35 c-3 -8 -6 -5 -6 6 -1 11 2 17 5 13 3 -3 4 -12 1 -19z m-809 -15 c-21 -2
-55 -2 -75 0 -21 2 -4 4 37 4 41 0 58 -2 38 -4z m100 0 c-10 -2 -28 -2 -40 0
-13 2 -5 4 17 4 22 1 32 -1 23 -4z m-611 -70 c-8 -12 19 -167 39 -225 78 -239
262 -451 489 -565 70 -36 199 -77 270 -88 l50 -7 -140 -39 c-77 -21 -153 -43
-168 -49 -24 -8 -40 -3 -110 33 -202 104 -369 271 -475 474 -68 131 -106 264
-125 441 l-4 32 89 0 c49 0 87 -3 85 -7z m1790 -10 c-20 -2 -52 -2 -70 0 -17
2 0 4 38 4 39 0 53 -2 32 -4z"/>
<path d="M7598 6313 c6 -2 18 -2 25 0 6 3 1 5 -13 5 -14 0 -19 -2 -12 -5z"/>
<path d="M7683 6313 c9 -2 23 -2 30 0 6 3 -1 5 -18 5 -16 0 -22 -2 -12 -5z"/>
<path d="M7730 6316 c0 -9 30 -14 35 -6 4 6 -3 10 -14 10 -12 0 -21 -2 -21 -4z"/>
<path d="M7533 6303 c9 -2 23 -2 30 0 6 3 -1 5 -18 5 -16 0 -22 -2 -12 -5z"/>
<path d="M7828 6303 c7 -3 16 -2 19 1 4 3 -2 6 -13 5 -11 0 -14 -3 -6 -6z"/>
<path d="M7470 6291 c0 -5 -10 -7 -22 -4 -17 3 -19 2 -9 -5 11 -8 10 -12 -5
-21 -20 -13 -16 -12 34 9 34 15 42 30 17 30 -8 0 -15 -4 -15 -9z"/>
<path d="M7868 6293 c7 -3 16 -2 19 1 4 3 -2 6 -13 5 -11 0 -14 -3 -6 -6z"/>
<path d="M7385 6270 c-19 -8 -19 -9 2 -9 12 -1 25 4 28 9 7 12 -2 12 -30 0z"/>
<path d="M7948 6273 c7 -3 16 -2 19 1 4 3 -2 6 -13 5 -11 0 -14 -3 -6 -6z"/>
<path d="M7272 6225 c-39 -19 -72 -37 -72 -40 0 -2 219 -5 487 -5 l488 0 -33
20 c-25 16 -37 18 -50 10 -14 -9 -14 -10 5 -5 12 3 24 1 28 -4 4 -7 -42 -10
-135 -10 -77 1 -142 5 -146 10 -3 5 -11 9 -17 9 -7 0 -6 -4 3 -10 11 -7 -4
-10 -48 -10 -48 0 -61 3 -56 13 6 9 4 9 -7 1 -21 -17 -185 -13 -181 4 1 8 -2
11 -8 7 -6 -3 -8 -11 -5 -16 4 -5 -3 -9 -14 -9 -12 0 -21 6 -21 13 0 8 -3 9
-8 1 -4 -6 -31 -12 -61 -13 -49 -2 -53 0 -41 14 11 13 10 15 -2 10 -11 -5 -15
0 -14 16 0 12 -4 24 -9 26 -6 2 -43 -12 -83 -32z m85 -13 c1 -10 -4 -19 -12
-19 -10 0 -12 13 -6 35 4 10 17 -2 18 -16z m-69 -17 c-3 -3 -9 2 -12 12 -6 14
-5 15 5 6 7 -7 10 -15 7 -18z"/>
<path d="M7380 6240 c0 -5 7 -7 15 -4 8 4 15 8 15 10 0 2 -7 4 -15 4 -8 0 -15
-4 -15 -10z"/>
<path d="M7470 6236 c0 -2 7 -7 16 -10 8 -3 12 -2 9 4 -6 10 -25 14 -25 6z"/>
<path d="M7566 6229 c2 -4 -2 -10 -8 -12 -8 -4 -9 -6 -2 -6 6 -1 17 5 23 12 8
10 7 14 -4 14 -8 0 -12 -4 -9 -8z"/>
<path d="M8343 6018 c2 -12 35 -48 44 -48 2 0 -5 14 -17 30 -23 32 -32 38 -27
18z"/>
<path d="M8335 5979 c-4 -6 -5 -12 -2 -15 2 -3 7 2 10 11 7 17 1 20 -8 4z"/>
<path d="M8348 5943 c12 -2 32 -2 45 0 12 2 2 4 -23 4 -25 0 -35 -2 -22 -4z"/>
<path d="M8319 5822 c-17 -3 -35 -64 -24 -81 3 -6 1 -12 -5 -16 -15 -9 -13
-55 3 -51 31 10 78 15 74 8 -3 -4 31 -7 74 -8 91 -1 89 -4 58 91 l-20 64 -72
-2 c-40 -1 -79 -3 -88 -5z m25 -47 c-4 -8 -10 -12 -15 -9 -11 6 -2 24 11 24 5
0 7 -7 4 -15z m30 -11 c3 -8 2 -12 -4 -9 -6 3 -10 10 -10 16 0 14 7 11 14 -7z
m-46 -22 c2 -7 -1 -12 -8 -12 -6 0 -9 4 -6 9 4 5 1 12 -4 14 -6 3 -5 4 2 3 6
-1 14 -8 16 -14z m22 -12 c-6 -11 -13 -20 -16 -20 -2 0 0 9 6 20 6 11 13 20
16 20 2 0 0 -9 -6 -20z m45 -9 c3 -5 1 -12 -4 -15 -5 -3 -11 1 -15 9 -6 16 9
21 19 6z m50 -11 c3 -6 -1 -7 -9 -4 -18 7 -21 14 -7 14 6 0 13 -4 16 -10z"/>
<path d="M6581 5394 c0 -11 3 -14 6 -6 3 7 2 16 -1 19 -3 4 -6 -2 -5 -13z"/>
<path d="M6592 5325 c0 -16 2 -22 5 -12 2 9 2 23 0 30 -3 6 -5 -1 -5 -18z"/>
<path d="M12280 9065 c-216 -39 -423 -149 -586 -310 -134 -131 -256 -362 -314
-591 -9 -36 -15 -43 -43 -48 -51 -10 -139 -54 -174 -88 -108 -104 2 -216 246
-251 l84 -13 -2 -104 c-1 -58 3 -186 9 -285 30 -490 175 -836 402 -955 35 -18
64 -34 66 -35 1 -1 -14 -26 -34 -56 -35 -52 -43 -57 -242 -159 -240 -122 -334
-181 -417 -265 -157 -157 -222 -330 -284 -755 -29 -199 -81 -657 -81 -714 0
-17 11 -38 29 -57 l29 -29 911 0 911 0 0 -288 c0 -267 1 -290 18 -305 25 -23
58 -21 82 3 19 19 20 33 20 305 l0 285 820 0 821 0 24 25 c22 21 25 33 25 102
0 120 -48 540 -90 783 -44 254 -78 354 -164 484 -123 185 -279 286 -719 466
-167 69 -235 113 -285 187 -46 68 -117 136 -167 160 l-35 17 0 212 0 212 58 4
c142 10 264 125 308 293 20 72 17 199 -5 263 -18 53 -18 55 1 105 14 36 18 65
14 94 -5 40 -4 42 28 53 68 22 88 100 37 142 -26 22 -29 32 -39 131 -30 278
-97 443 -246 604 -262 282 -682 438 -1016 378z m373 -152 c37 -9 67 -19 67
-22 0 -4 -16 -15 -36 -26 -78 -42 -162 -168 -208 -310 -38 -116 -32 -175 18
-175 31 0 39 11 106 148 83 169 135 227 247 271 l51 20 55 -33 c204 -123 335
-275 396 -459 28 -83 70 -302 60 -311 -2 -2 -71 13 -154 34 -411 105 -876 146
-1372 121 -142 -7 -281 -15 -310 -18 l-52 -5 14 47 c71 233 198 429 352 542
95 70 95 70 78 29 -43 -103 -70 -338 -45 -387 14 -25 56 -25 70 0 5 11 16 50
24 88 8 37 27 106 42 153 64 203 141 288 282 310 75 11 230 3 315 -17z m-23
-888 c228 -22 539 -75 563 -95 4 -4 -59 -10 -140 -13 -81 -4 -269 -14 -418
-22 -579 -32 -1189 -12 -1335 43 -23 8 -20 10 35 31 93 35 246 59 485 75 119
8 663 -4 810 -19z m200 -302 c0 -99 73 -197 165 -223 60 -17 87 -10 104 25 9
17 26 47 38 68 22 36 25 37 79 37 101 0 151 -42 176 -148 22 -100 -23 -245
-96 -310 -47 -41 -94 -53 -184 -45 -105 9 -102 16 -101 -236 0 -113 4 -262 7
-330 l7 -124 -70 -77 c-38 -43 -122 -124 -185 -181 -63 -57 -168 -156 -233
-220 l-118 -116 -41 71 c-49 82 -120 240 -154 340 -13 38 -24 70 -24 71 0 1
42 5 93 8 181 12 335 75 448 183 70 69 86 103 57 132 -21 21 -38 14 -153 -63
-62 -42 -137 -84 -168 -95 -64 -23 -167 -40 -243 -40 -65 0 -194 33 -262 67
-141 71 -255 275 -311 556 -32 157 -41 264 -41 478 l0 197 423 1 c232 0 481 5
552 9 72 5 154 10 183 10 l52 2 0 -47z m382 -1352 c27 -34 51 -74 54 -88 11
-41 -30 -164 -101 -308 -35 -71 -73 -145 -84 -162 l-21 -33 -71 46 c-80 52
-201 110 -252 122 l-34 7 144 130 c143 128 259 249 282 292 6 12 11 31 11 43
0 34 20 20 72 -49z m-1101 -157 c16 -47 45 -120 64 -161 47 -103 47 -102 -5
-120 -35 -12 -152 -64 -222 -101 -12 -6 -9 95 6 193 7 50 25 119 40 154 26 64
74 137 83 127 3 -3 18 -44 34 -92z m1351 -63 c45 -22 164 -73 263 -115 253
-107 332 -153 435 -256 123 -123 177 -233 219 -454 28 -142 67 -432 86 -626 8
-91 17 -180 19 -197 l5 -33 -406 0 -406 0 8 355 7 354 -26 26 c-31 31 -41 31
-70 2 -22 -22 -23 -31 -29 -252 -4 -125 -7 -286 -7 -357 l0 -128 -580 0 -581
0 6 133 c3 72 10 254 15 402 11 283 25 511 40 633 7 67 11 76 58 130 90 103
93 105 143 92 62 -17 210 -92 305 -156 103 -69 121 -70 174 -3 82 104 182 305
220 442 7 26 14 47 15 47 2 0 41 -18 87 -39z m-1633 -146 c-13 -119 0 -256 29
-295 27 -36 55 -36 120 3 63 39 153 84 236 121 l55 24 36 -60 36 -60 -16 -202
c-15 -209 -29 -504 -41 -859 l-6 -207 -397 2 -396 3 -1 385 c-1 212 -2 390 -2
397 -3 23 -39 34 -66 22 -45 -21 -49 -56 -50 -446 l-1 -363 -162 0 c-154 0
-163 1 -163 19 0 25 56 521 70 621 22 162 60 358 81 420 50 153 145 283 277
378 53 38 361 202 369 197 1 0 -3 -45 -8 -100z"/>
<path d="M11784 7587 c-22 -19 -28 -34 -32 -78 -5 -72 21 -109 78 -109 53 0
80 34 80 102 0 41 -5 54 -29 79 -36 35 -61 37 -97 6z"/>
<path d="M12363 7602 c-34 -5 -53 -40 -53 -98 0 -67 27 -104 75 -104 47 0 75
37 75 100 0 72 -38 111 -97 102z"/>
<path d="M12013 7489 c-36 -13 -123 -239 -123 -318 0 -104 83 -154 201 -121
50 14 63 31 48 64 -12 26 -50 43 -112 48 l-27 3 46 134 c36 103 44 141 38 159
-11 29 -41 43 -71 31z"/>
<path d="M12290 6924 c-70 -31 -129 -37 -203 -23 -76 14 -100 7 -105 -30 -11
-74 159 -115 296 -72 81 25 122 55 122 90 0 51 -42 65 -110 35z"/>
<path d="M13540 3727 c-195 -50 -345 -191 -405 -380 -20 -63 -25 -98 -25 -185
0 -59 4 -124 9 -145 l9 -39 -145 -149 c-81 -82 -150 -148 -154 -147 -4 2 -89
81 -188 176 -116 112 -181 181 -181 194 0 11 43 64 104 127 79 82 105 116 110
143 12 64 -24 122 -99 161 -53 27 -209 29 -305 3 -164 -45 -325 -173 -391
-312 -32 -68 -35 -72 -64 -68 -27 4 -45 -10 -193 -153 -215 -209 -215 -196 -6
-411 l119 -122 48 0 c53 0 57 3 243 182 50 48 95 88 100 88 12 0 354 -343 354
-354 0 -5 -134 -145 -298 -310 -336 -339 -344 -350 -350 -478 -4 -65 0 -85 21
-131 31 -67 93 -132 156 -160 35 -17 65 -22 126 -22 137 0 153 11 495 351
l295 293 290 -288 c321 -319 342 -334 449 -335 187 -1 301 169 230 344 -10 22
-123 144 -314 335 l-300 300 143 143 143 143 45 -10 c66 -15 207 -13 274 4
119 31 202 79 290 168 124 127 177 256 178 432 0 142 -28 215 -82 215 -21 0
-61 -35 -186 -160 -88 -88 -165 -160 -171 -160 -6 0 -57 18 -115 39 l-104 39
-32 93 c-18 52 -33 105 -33 119 0 19 37 62 157 182 135 135 156 161 156 188 0
62 -48 80 -213 79 -75 0 -130 -6 -190 -22z m88 -224 c-129 -131 -139 -151
-119 -241 22 -105 73 -245 97 -267 13 -12 89 -45 169 -74 130 -47 148 -51 178
-42 19 7 45 23 57 36 28 30 51 34 24 4 -14 -15 -15 -20 -4 -17 8 2 14 -3 12
-10 -1 -8 2 -11 8 -7 6 3 8 11 5 16 -4 5 0 9 7 10 11 0 11 2 0 6 -10 4 -8 12
10 32 22 25 23 25 1 7 -13 -11 -23 -15 -23 -10 0 12 42 39 55 35 6 -1 7 1 3 5
-11 10 12 35 26 27 6 -3 8 -2 3 2 -10 11 53 76 66 68 6 -3 7 -1 4 4 -4 6 0 16
8 23 12 10 15 9 15 -7 0 -46 -24 -142 -50 -199 -27 -59 -50 -88 -50 -63 0 7
-6 5 -13 -6 -9 -11 -19 -15 -28 -10 -11 6 -12 5 -2 -5 10 -11 15 -11 28 0 8 7
15 8 15 2 0 -5 -27 -35 -60 -65 -108 -101 -235 -143 -375 -125 -99 12 -182 25
-171 27 5 0 -22 26 -59 56 l-68 56 -27 -26 c-16 -15 -32 -27 -37 -27 -4 0 -17
-7 -28 -15 -16 -12 -16 -14 -2 -10 9 4 17 2 17 -3 0 -9 -14 -14 -32 -11 -5 0
-7 -2 -6 -7 3 -9 -25 -52 -33 -52 -4 0 -5 10 -2 23 3 12 3 19 0 16 -4 -3 -8
-14 -10 -26 -1 -11 -17 -38 -34 -59 -28 -35 -32 -37 -49 -24 -18 14 -18 14 -5
-3 13 -16 9 -22 -32 -62 -32 -30 -52 -43 -64 -39 -14 5 -15 4 -4 -4 11 -8 -54
-78 -289 -316 -261 -263 -305 -304 -319 -293 -14 10 -14 10 -4 -4 10 -13 -3
-31 -87 -114 -55 -55 -100 -106 -100 -113 0 -8 -12 -1 -28 16 -35 38 -73 48
-113 32 -43 -18 -69 -56 -69 -102 0 -32 7 -47 34 -74 19 -19 44 -34 56 -34 21
0 20 -1 -6 -35 -28 -37 -43 -42 -76 -24 -17 9 -18 13 -7 21 10 7 8 8 -8 3 -33
-9 -66 45 -71 115 -3 44 1 66 18 101 26 52 1157 1192 1173 1182 6 -3 7 -2 4 4
-3 5 10 25 30 44 19 19 44 53 54 76 17 36 18 48 8 90 -20 88 -15 220 12 298
14 40 29 69 36 68 7 -2 10 3 7 11 -7 17 54 88 69 79 5 -3 7 -1 4 5 -16 25 134
113 224 131 24 5 66 9 93 10 l50 1 -116 -117z m-1119 -134 c17 -6 31 -16 31
-22 0 -6 -40 -52 -90 -102 -118 -121 -142 -181 -104 -258 9 -18 101 -115 206
-217 l190 -185 -81 -79 -80 -80 -183 181 c-101 99 -193 186 -205 192 -31 16
-99 14 -136 -5 -18 -9 -85 -69 -150 -133 l-119 -116 -94 97 c-52 53 -94 101
-94 106 0 4 51 56 114 115 90 84 118 105 135 100 52 -14 90 24 121 120 26 81
130 191 228 241 88 45 245 68 311 45z m831 -659 c0 -5 -5 -10 -11 -10 -5 0 -7
5 -4 10 3 6 8 10 11 10 2 0 4 -4 4 -10z m170 -64 c0 -2 -8 -10 -17 -17 -16
-13 -17 -12 -4 4 13 16 21 21 21 13z m-600 -589 c0 -2 -12 -14 -27 -28 l-28
-24 24 28 c23 25 31 32 31 24z m419 -58 c1 -3 -6 -6 -14 -6 -8 0 -11 5 -8 10
3 6 1 7 -5 3 -7 -4 -12 -1 -12 9 0 15 -3 14 -30 -2 -16 -9 -30 -21 -30 -26 0
-4 5 -5 10 -2 6 3 10 1 10 -5 0 -7 -7 -10 -15 -7 -17 7 -30 -9 -15 -18 15 -9
42 15 36 32 -6 16 24 14 36 -2 11 -14 10 -27 -1 -21 -4 3 -8 -2 -8 -12 0 -35
-3 -43 -14 -36 -6 3 -3 -5 6 -19 9 -15 14 -31 10 -37 -3 -5 0 -10 7 -10 7 -1
2 -7 -12 -15 -24 -13 -24 -14 -2 -12 12 1 22 5 22 10 0 5 7 4 15 -3 21 -17 8
-33 -21 -26 -21 6 -24 3 -24 -24 0 -20 -4 -29 -11 -25 -6 4 -8 13 -5 21 3 8 0
11 -9 7 -8 -3 -18 2 -21 11 -3 9 -11 16 -17 16 -6 0 4 -16 23 -35 19 -19 40
-35 48 -35 7 0 11 -4 8 -9 -9 -14 90 -101 102 -89 7 7 12 0 17 -21 4 -17 11
-31 16 -31 15 0 0 42 -23 65 -12 11 -18 14 -14 8 9 -16 1 -16 -24 -3 -11 6
-17 17 -14 24 5 14 28 16 40 3 4 -4 12 -7 18 -7 15 0 -36 34 -55 37 -13 2 -16
-3 -11 -20 5 -19 4 -20 -11 -8 -9 7 -14 17 -11 22 3 5 0 8 -7 7 -7 -2 -13 2
-14 9 0 6 -3 15 -7 19 -5 4 -8 18 -8 31 0 20 3 22 19 14 15 -8 20 -7 25 5 3 8
9 13 13 11 5 -3 17 -1 28 3 12 4 24 2 30 -6 7 -10 14 -11 25 -3 13 9 12 10 -2
5 -17 -5 -23 8 -19 42 1 6 -3 12 -9 12 -5 0 -10 -8 -10 -19 0 -27 -31 -31 -55
-8 -18 18 -18 19 -2 14 11 -4 16 -3 12 4 -4 6 -13 8 -20 5 -19 -7 -32 54 -14
65 8 5 20 9 27 9 6 0 12 7 12 16 0 9 5 12 12 8 7 -4 8 -3 4 5 -6 8 -12 9 -20
2 -14 -12 -26 -5 -26 14 0 36 56 -9 244 -194 201 -199 236 -242 236 -295 0
-36 -45 -84 -92 -96 -35 -10 -46 -8 -86 12 -26 13 -46 28 -45 33 1 6 -3 16 -9
23 -16 18 3 15 25 -5 19 -18 19 -17 6 5 -8 13 -24 22 -38 22 -23 0 -24 -1 -6
-20 10 -11 14 -20 9 -20 -20 0 -126 118 -119 131 5 8 4 10 -4 5 -7 -5 -72 52
-170 149 l-158 155 86 84 85 84 27 -21 c16 -12 28 -25 28 -28z"/>
<path d="M13574 3589 c-13 -5 -6 -8 22 -8 22 -1 45 -6 51 -12 9 -9 12 -7 10
10 -1 18 -7 21 -33 19 -17 -1 -40 -5 -50 -9z"/>
<path d="M13591 3544 c0 -11 3 -14 6 -6 3 7 2 16 -1 19 -3 4 -6 -2 -5 -13z"/>
<path d="M13408 3507 c-10 -8 -13 -18 -9 -26 6 -9 10 -7 14 9 4 14 10 19 18
14 8 -4 10 -3 5 4 -9 14 -7 14 -28 -1z"/>
<path d="M13580 3500 c0 -5 7 -7 15 -4 8 4 15 8 15 10 0 2 -7 4 -15 4 -8 0
-15 -4 -15 -10z"/>
<path d="M13509 3473 c-13 -16 -12 -17 4 -4 16 13 21 21 13 21 -2 0 -10 -8
-17 -17z"/>
<path d="M13537 3449 c7 -7 15 -10 18 -7 3 3 -2 9 -12 12 -14 6 -15 5 -6 -5z"/>
<path d="M13520 3431 c0 -7 -5 -9 -12 -5 -7 5 -8 3 -3 -5 5 -9 10 -10 18 -2 6
6 8 14 4 18 -4 3 -7 1 -7 -6z"/>
<path d="M13445 3400 c-3 -5 -1 -10 4 -10 6 0 11 5 11 10 0 6 -2 10 -4 10 -3
0 -8 -4 -11 -10z"/>
<path d="M13363 3338 c-1 -11 1 -16 5 -12 4 5 11 12 15 15 5 3 2 9 -5 12 -9 3
-14 -3 -15 -15z"/>
<path d="M13468 3302 c7 -5 10 -17 7 -28 -6 -17 -6 -18 5 -1 12 19 6 37 -13
37 -9 0 -8 -3 1 -8z"/>
<path d="M13300 3260 c8 -5 20 -10 25 -10 6 0 3 5 -5 10 -8 5 -19 10 -25 10
-5 0 -3 -5 5 -10z"/>
<path d="M13252 3230 c0 -14 2 -19 5 -12 2 6 2 18 0 25 -3 6 -5 1 -5 -13z"/>
<path d="M13368 3233 c7 -3 16 -2 19 1 4 3 -2 6 -13 5 -11 0 -14 -3 -6 -6z"/>
<path d="M13410 3201 c0 -6 4 -13 10 -16 6 -3 7 1 4 9 -7 18 -14 21 -14 7z"/>
<path d="M13250 3176 c0 -31 6 -34 13 -6 3 11 1 23 -4 26 -5 3 -9 -6 -9 -20z"/>
<path d="M13511 3163 c-1 -12 4 -25 9 -28 12 -7 12 2 0 30 -8 19 -9 19 -9 -2z"/>
<path d="M13395 3160 c-3 -5 -2 -10 4 -10 5 0 13 5 16 10 3 6 2 10 -4 10 -5 0
-13 -4 -16 -10z"/>
<path d="M13250 3121 c0 -11 4 -22 9 -25 4 -3 6 6 3 19 -5 30 -12 33 -12 6z"/>
<path d="M13307 3117 c-3 -8 0 -14 7 -14 7 0 13 6 13 14 0 7 -4 13 -8 13 -4 0
-9 -6 -12 -13z"/>
<path d="M13431 3083 c7 -12 15 -20 18 -17 3 2 -3 12 -13 22 -17 16 -18 16 -5
-5z"/>
<path d="M13460 3089 c0 -5 5 -7 10 -4 6 3 10 8 10 11 0 2 -4 4 -10 4 -5 0
-10 -5 -10 -11z"/>
<path d="M13274 3054 c-18 -14 -18 -15 4 -4 12 6 22 13 22 15 0 8 -5 6 -26
-11z"/>
<path d="M14200 3041 c0 -11 -6 -22 -12 -24 -8 -3 -6 -6 5 -6 12 -1 17 7 17
24 0 14 -2 25 -5 25 -3 0 -5 -9 -5 -19z"/>
<path d="M13380 3020 c0 -5 5 -10 11 -10 5 0 7 5 4 10 -3 6 -8 10 -11 10 -2 0
-4 -4 -4 -10z"/>
<path d="M13450 3016 c0 -2 8 -10 18 -17 15 -13 16 -12 3 4 -13 16 -21 21 -21
13z"/>
<path d="M13358 2993 c7 -3 16 -2 19 1 4 3 -2 6 -13 5 -11 0 -14 -3 -6 -6z"/>
<path d="M13504 2991 c4 -5 13 -8 21 -7 25 4 25 12 -1 14 -14 1 -23 -2 -20 -7z"/>
<path d="M13326 2982 c-3 -5 1 -9 9 -9 8 0 12 4 9 9 -3 4 -7 8 -9 8 -2 0 -6
-4 -9 -8z"/>
<path d="M13435 2980 c3 -5 8 -10 11 -10 2 0 4 5 4 10 0 6 -5 10 -11 10 -5 0
-7 -4 -4 -10z"/>
<path d="M13290 2975 c0 -5 5 -17 10 -25 5 -8 10 -10 10 -5 0 6 -5 17 -10 25
-5 8 -10 11 -10 5z"/>
<path d="M13635 2950 c3 -5 11 -10 16 -10 6 0 7 5 4 10 -3 6 -11 10 -16 10 -6
0 -7 -4 -4 -10z"/>
<path d="M14107 2939 c7 -7 15 -10 18 -7 3 3 -2 9 -12 12 -14 6 -15 5 -6 -5z"/>
<path d="M13540 2920 c0 -6 7 -10 15 -10 8 0 15 2 15 4 0 2 -7 6 -15 10 -8 3
-15 1 -15 -4z"/>
<path d="M14090 2910 c6 -11 13 -20 16 -20 2 0 0 9 -6 20 -6 11 -13 20 -16 20
-2 0 0 -9 6 -20z"/>
<path d="M13264 2910 c-12 -5 -24 -17 -28 -27 -5 -16 -5 -16 6 -2 18 21 46 30
52 16 3 -9 5 -9 5 0 1 17 -11 22 -35 13z"/>
<path d="M13400 2870 c-8 -5 -10 -10 -5 -10 6 0 17 5 25 10 8 5 11 10 5 10 -5
0 -17 -5 -25 -10z"/>
<path d="M13523 2869 c-13 -13 -6 -39 9 -39 6 0 6 6 -1 14 -9 11 -9 15 1 19 7
2 10 7 7 10 -3 4 -10 2 -16 -4z"/>
<path d="M13355 2860 c3 -5 8 -10 11 -10 2 0 4 5 4 10 0 6 -5 10 -11 10 -5 0
-7 -4 -4 -10z"/>
<path d="M14043 2855 c-3 -9 -3 -19 1 -22 3 -4 6 -1 6 6 0 7 4 9 10 6 6 -3 7
1 4 9 -8 20 -13 20 -21 1z"/>
<path d="M13205 2830 c-3 -6 1 -7 9 -4 18 7 21 14 7 14 -6 0 -13 -4 -16 -10z"/>
<path d="M13656 2825 c-9 -26 -7 -32 5 -12 6 10 9 21 6 23 -2 3 -7 -2 -11 -11z"/>
<path d="M14055 2789 c-10 -15 3 -25 16 -12 7 7 7 13 1 17 -6 3 -14 1 -17 -5z"/>
<path d="M13135 2780 c-3 -6 1 -7 9 -4 18 7 21 14 7 14 -6 0 -13 -4 -16 -10z"/>
<path d="M13216 2775 c4 -8 11 -15 16 -15 6 0 5 6 -2 15 -7 8 -14 15 -16 15
-2 0 -1 -7 2 -15z"/>
<path d="M14018 2773 c7 -3 16 -2 19 1 4 3 -2 6 -13 5 -11 0 -14 -3 -6 -6z"/>
<path d="M13110 2751 c0 -6 4 -13 10 -16 6 -3 7 1 4 9 -7 18 -14 21 -14 7z"/>
<path d="M13149 2758 c-5 -19 -8 -50 -4 -46 7 7 15 48 9 48 -2 0 -4 -1 -5 -2z"/>
<path d="M13943 2745 c0 -8 4 -15 9 -15 4 0 8 4 8 9 0 6 -4 12 -8 15 -5 3 -9
-1 -9 -9z"/>
<path d="M13536 2732 c-2 -4 4 -8 14 -8 10 0 16 4 14 8 -3 4 -9 8 -14 8 -5 0
-11 -4 -14 -8z"/>
<path d="M13870 2730 c-8 -5 -10 -10 -5 -10 6 0 17 5 25 10 8 5 11 10 5 10 -5
0 -17 -5 -25 -10z"/>
<path d="M13635 2720 c-3 -5 -2 -10 4 -10 5 0 13 5 16 10 3 6 2 10 -4 10 -5 0
-13 -4 -16 -10z"/>
<path d="M13595 2710 c-3 -6 1 -7 9 -4 18 7 21 14 7 14 -6 0 -13 -4 -16 -10z"/>
<path d="M13782 2704 c-7 -8 -8 -14 -3 -14 10 0 25 19 20 25 -2 1 -10 -3 -17
-11z"/>
<path d="M13974 2704 c-18 -14 -18 -15 4 -4 12 6 22 13 22 15 0 8 -5 6 -26
-11z"/>
<path d="M13254 2694 c-18 -14 -18 -15 4 -4 12 6 22 13 22 15 0 8 -5 6 -26
-11z"/>
<path d="M13190 2682 c0 -5 7 -15 15 -22 13 -10 13 -15 3 -21 -7 -4 -10 -11
-7 -14 4 -3 11 0 17 7 7 10 5 19 -9 37 -10 13 -19 19 -19 13z"/>
<path d="M13014 2658 c-12 -14 -13 -18 -3 -10 9 6 18 10 21 7 2 -3 5 2 5 10 0
19 0 19 -23 -7z"/>
<path d="M13598 2663 c7 -3 16 -2 19 1 4 3 -2 6 -13 5 -11 0 -14 -3 -6 -6z"/>
<path d="M13796 2655 c4 -8 8 -15 10 -15 2 0 4 7 4 15 0 8 -4 15 -10 15 -5 0
-7 -7 -4 -15z"/>
<path d="M13710 2650 c0 -5 5 -10 10 -10 6 0 10 5 10 10 0 6 -4 10 -10 10 -5
0 -10 -4 -10 -10z"/>
<path d="M13745 2649 c7 -11 35 -12 35 -1 0 4 -9 8 -20 9 -11 1 -18 -2 -15 -8z"/>
<path d="M13848 2653 c7 -3 16 -2 19 1 4 3 -2 6 -13 5 -11 0 -14 -3 -6 -6z"/>
<path d="M13073 2635 c0 -8 4 -12 9 -9 5 3 6 10 3 15 -9 13 -12 11 -12 -6z"/>
<path d="M13668 2643 c6 -2 18 -2 25 0 6 3 1 5 -13 5 -14 0 -19 -2 -12 -5z"/>
<path d="M13140 2580 c0 -5 5 -10 11 -10 5 0 7 5 4 10 -3 6 -8 10 -11 10 -2 0
-4 -4 -4 -10z"/>
<path d="M13040 2570 c0 -5 6 -9 13 -7 6 1 11 -4 9 -11 -1 -8 2 -11 8 -7 8 5
7 11 -1 21 -13 16 -29 18 -29 4z"/>
<path d="M13040 2541 c0 -6 4 -13 10 -16 6 -3 7 1 4 9 -7 18 -14 21 -14 7z"/>
<path d="M13024 2499 c0 -13 3 -15 13 -7 7 6 13 12 13 13 0 2 -6 5 -13 8 -7 3
-13 -3 -13 -14z"/>
<path d="M12955 2491 c-3 -5 -2 -12 3 -15 5 -3 9 1 9 9 0 17 -3 19 -12 6z"/>
<path d="M12825 2460 c3 -5 11 -10 16 -10 6 0 7 5 4 10 -3 6 -11 10 -16 10 -6
0 -7 -4 -4 -10z"/>
<path d="M12967 2429 c7 -7 15 -10 18 -7 3 3 -2 9 -12 12 -14 6 -15 5 -6 -5z"/>
<path d="M12759 2403 c-13 -16 -12 -17 4 -4 16 13 21 21 13 21 -2 0 -10 -8
-17 -17z"/>
<path d="M12929 2363 c-13 -16 -12 -17 4 -4 16 13 21 21 13 21 -2 0 -10 -8
-17 -17z"/>
<path d="M12669 2313 c-13 -16 -12 -17 4 -4 16 13 21 21 13 21 -2 0 -10 -8
-17 -17z"/>
<path d="M12838 2293 c7 -3 16 -2 19 1 4 3 -2 6 -13 5 -11 0 -14 -3 -6 -6z"/>
<path d="M12658 2273 c7 -3 16 -2 19 1 4 3 -2 6 -13 5 -11 0 -14 -3 -6 -6z"/>
<path d="M12685 2250 c-3 -5 -1 -10 4 -10 6 0 11 5 11 10 0 6 -2 10 -4 10 -3
0 -8 -4 -11 -10z"/>
<path d="M12823 2247 c0 -8 6 -14 14 -14 9 0 10 4 2 14 -6 7 -12 13 -14 13 -1
0 -2 -6 -2 -13z"/>
<path d="M12620 2230 c0 -5 5 -10 10 -10 6 0 10 5 10 10 0 6 -4 10 -10 10 -5
0 -10 -4 -10 -10z"/>
<path d="M12720 2231 c0 -6 4 -13 10 -16 6 -3 7 1 4 9 -7 18 -14 21 -14 7z"/>
<path d="M12576 2222 c-3 -5 1 -9 9 -9 8 0 12 4 9 9 -3 4 -7 8 -9 8 -2 0 -6
-4 -9 -8z"/>
<path d="M12695 2220 c-3 -5 -1 -10 4 -10 6 0 11 5 11 10 0 6 -2 10 -4 10 -3
0 -8 -4 -11 -10z"/>
<path d="M12494 2137 c-32 -34 -41 -45 -18 -24 22 20 44 34 49 30 4 -5 5 -3 1
4 -3 6 3 18 16 27 12 9 20 18 17 21 -3 2 -32 -23 -65 -58z"/>
<path d="M12600 2191 c0 -5 7 -12 16 -15 14 -5 15 -4 4 9 -14 17 -20 19 -20 6z"/>
<path d="M12750 2175 c0 -8 4 -15 10 -15 5 0 7 7 4 15 -4 8 -8 15 -10 15 -2 0
-4 -7 -4 -15z"/>
<path d="M12666 2063 c-6 -14 -5 -15 5 -6 7 7 10 15 7 18 -3 3 -9 -2 -12 -12z"/>
<path d="M12632 2051 c7 -9 13 -18 15 -20 1 -2 1 5 0 16 0 11 -7 20 -14 20
-10 0 -10 -4 -1 -16z"/>
<path d="M12430 2050 c-9 -6 -10 -10 -3 -10 6 0 15 5 18 10 8 12 4 12 -15 0z"/>
<path d="M12610 2041 c0 -6 4 -13 10 -16 6 -3 7 1 4 9 -7 18 -14 21 -14 7z"/>
<path d="M12485 2009 c-4 -6 -5 -12 -2 -15 2 -3 7 2 10 11 7 17 1 20 -8 4z"/>
<path d="M12349 1993 c-13 -16 -12 -17 4 -4 16 13 21 21 13 21 -2 0 -10 -8
-17 -17z"/>
<path d="M12425 2000 c-3 -5 1 -10 10 -10 9 0 13 5 10 10 -3 6 -8 10 -10 10
-2 0 -7 -4 -10 -10z"/>
<path d="M12552 1974 c-7 -8 -17 -12 -23 -9 -5 4 -9 1 -9 -5 0 -7 7 -9 16 -6
12 4 15 2 10 -9 -3 -8 -3 -15 0 -15 5 0 26 51 22 55 -2 2 -9 -3 -16 -11z"/>
<path d="M12446 1965 c-3 -10 0 -12 11 -8 10 4 14 2 10 -4 -3 -5 0 -10 8 -10
20 0 19 10 -4 24 -15 10 -20 9 -25 -2z"/>
<path d="M12395 1960 c-4 -6 3 -10 14 -10 25 0 27 6 6 13 -8 4 -17 2 -20 -3z"/>
<path d="M12301 1946 c-9 -11 -9 -16 1 -22 7 -4 10 -4 6 1 -4 4 -3 14 3 22 6
7 9 13 6 13 -2 0 -10 -6 -16 -14z"/>
<path d="M12346 1942 c-3 -4 4 -9 15 -9 23 -2 25 3 4 10 -8 4 -16 3 -19 -1z"/>
<path d="M12237 1882 c-34 -34 -36 -40 -22 -52 19 -15 34 -5 17 12 -9 9 -7 17
9 34 20 22 23 22 48 6 14 -9 23 -12 19 -7 -4 4 -3 14 3 22 9 9 8 13 0 13 -6 0
-11 -4 -11 -10 0 -5 -7 -7 -16 -3 -13 5 -13 7 -2 14 7 5 8 9 3 9 -6 0 -28 -17
-48 -38z"/>
<path d="M12263 1858 c-11 -19 -13 -39 -2 -32 5 3 9 12 9 20 0 8 5 12 10 9 6
-3 10 -1 10 4 0 15 -17 14 -27 -1z"/>
<path d="M12300 1840 c-13 -8 -12 -10 3 -10 9 0 17 5 17 10 0 12 -1 12 -20 0z"/>
<path d="M12333 1829 c-2 -23 3 -25 10 -4 4 8 3 16 -1 19 -4 3 -9 -4 -9 -15z"/>
<path d="M12174 1818 c-4 -6 -3 -8 4 -4 6 3 24 -8 42 -25 31 -32 49 -37 27 -9
-22 28 -65 51 -73 38z"/>
<path d="M12369 1813 c-13 -16 -12 -17 4 -4 16 13 21 21 13 21 -2 0 -10 -8
-17 -17z"/>
<path d="M12127 1772 c-26 -28 -26 -28 -4 -29 14 -2 17 1 9 6 -9 6 -8 12 7 25
11 10 25 15 32 10 8 -4 10 -3 5 4 -11 18 -20 15 -49 -16z"/>
<path d="M12323 1761 c1 -11 8 -21 15 -21 12 0 12 3 1 18 -7 9 -14 19 -16 21
-1 2 -1 -6 0 -18z"/>
<path d="M12275 1760 c3 -5 8 -10 11 -10 2 0 4 5 4 10 0 6 -5 10 -11 10 -5 0
-7 -4 -4 -10z"/>
<path d="M12248 1743 c7 -3 16 -2 19 1 4 3 -2 6 -13 5 -11 0 -14 -3 -6 -6z"/>
<path d="M12049 1692 c-59 -63 -62 -68 -42 -83 16 -12 17 -12 6 1 -9 12 -7 20
7 38 10 12 21 18 24 14 3 -5 2 -12 -1 -16 -10 -10 -11 -46 -1 -40 5 3 7 11 6
17 -1 7 3 22 10 34 11 20 10 22 -5 17 -12 -4 -8 4 11 21 15 14 26 28 24 30 -2
3 -20 -12 -39 -33z"/>
<path d="M12157 1719 c7 -7 15 -10 18 -7 3 3 -2 9 -12 12 -14 6 -15 5 -6 -5z"/>
<path d="M12295 1700 c3 -5 8 -10 11 -10 2 0 4 5 4 10 0 6 -5 10 -11 10 -5 0
-7 -4 -4 -10z"/>
<path d="M12205 1691 c-3 -5 -2 -12 3 -15 5 -3 9 1 9 9 0 17 -3 19 -12 6z"/>
<path d="M12127 1679 c7 -7 15 -10 18 -7 3 3 -2 9 -12 12 -14 6 -15 5 -6 -5z"/>
<path d="M12271 1674 c0 -11 3 -14 6 -6 3 7 2 16 -1 19 -3 4 -6 -2 -5 -13z"/>
<path d="M12234 1662 c-15 -24 -6 -46 12 -31 15 13 19 35 6 43 -4 2 -13 -3
-18 -12z m16 -12 c0 -5 -5 -10 -11 -10 -5 0 -7 5 -4 10 3 6 8 10 11 10 2 0 4
-4 4 -10z"/>
<path d="M12020 1511 c0 -6 4 -13 10 -16 6 -3 7 1 4 9 -7 18 -14 21 -14 7z"/>
<path d="M11980 1475 c0 -5 10 -21 21 -35 13 -17 17 -18 10 -5 -17 33 -31 51
-31 40z"/>
<path d="M12060 1396 c0 -2 7 -7 16 -10 8 -3 12 -2 9 4 -6 10 -25 14 -25 6z"/>
<path d="M13194 1946 c5 -14 3 -17 -11 -12 -10 4 -14 4 -11 0 4 -3 -5 -16 -20
-29 -26 -23 -27 -23 -8 -44 27 -30 42 -26 21 6 -17 26 -17 28 -1 38 48 28 52
33 37 47 -12 11 -13 10 -7 -6z"/>
<path d="M13350 1919 c0 -6 7 -8 16 -5 12 5 14 1 9 -15 -6 -18 -5 -19 13 -10
24 13 30 6 28 -31 -1 -14 2 -24 6 -21 14 8 4 50 -16 72 -20 22 -56 28 -56 10z"/>
<path d="M13211 1898 c0 -15 -5 -30 -11 -33 -20 -13 -9 -41 20 -52 17 -6 30
-8 30 -5 -1 13 -30 46 -30 34 0 -7 -4 -12 -9 -12 -10 0 -9 14 3 42 4 9 6 25 3
35 -3 12 -5 9 -6 -9z"/>
<path d="M13180 1895 c-11 -13 -10 -14 4 -9 9 3 16 10 16 15 0 13 -6 11 -20
-6z"/>
<path d="M13235 1899 c-4 -6 -5 -12 -2 -15 2 -3 7 2 10 11 7 17 1 20 -8 4z"/>
<path d="M13347 1880 c-5 -20 9 -38 20 -26 4 3 2 6 -4 6 -6 0 -9 9 -6 20 3 11
3 20 0 20 -2 0 -7 -9 -10 -20z"/>
<path d="M13240 1839 c0 -5 5 -7 10 -4 6 3 10 8 10 11 0 2 -4 4 -10 4 -5 0
-10 -5 -10 -11z"/>
<path d="M13436 1818 c3 -5 10 -6 15 -3 13 9 11 12 -6 12 -8 0 -12 -4 -9 -9z"/>
<path d="M13360 1784 c0 -8 5 -12 10 -9 6 3 10 10 10 16 0 5 -4 9 -10 9 -5 0
-10 -7 -10 -16z"/>
<path d="M13508 1793 c6 -2 10 -9 6 -14 -3 -5 -2 -14 2 -20 4 -8 9 -7 15 2 9
15 -7 39 -25 38 -7 0 -6 -2 2 -6z"/>
<path d="M13420 1770 c0 -5 5 -10 11 -10 5 0 7 5 4 10 -3 6 -8 10 -11 10 -2 0
-4 -4 -4 -10z"/>
<path d="M13396 1756 c15 -12 17 -17 7 -27 -11 -11 -13 -10 -13 4 0 9 -5 17
-10 17 -17 0 5 -33 24 -36 9 -1 16 4 16 11 0 25 -12 45 -28 45 -13 0 -12 -3 4
-14z"/>
<path d="M13300 1756 c0 -2 8 -10 18 -17 15 -13 16 -12 3 4 -13 16 -21 21 -21
13z"/>
<path d="M13336 1745 c4 -8 8 -15 10 -15 2 0 4 7 4 15 0 8 -4 15 -10 15 -5 0
-7 -7 -4 -15z"/>
<path d="M13493 1749 c3 -9 1 -21 -5 -27 -6 -6 -6 -12 0 -16 14 -8 22 29 10
45 -8 11 -9 11 -5 -2z"/>
<path d="M13568 1734 c6 -12 8 -25 4 -30 -4 -5 0 -3 8 4 12 10 12 15 -4 30
-18 16 -18 16 -8 -4z"/>
<path d="M13434 1713 c3 -4 1 -12 -5 -20 -9 -9 -8 -13 0 -13 6 0 11 5 11 11 0
6 9 9 20 6 11 -3 18 -2 15 3 -3 4 -14 10 -26 13 -11 3 -18 3 -15 0z"/>
<path d="M13585 1690 c-11 -18 5 -46 27 -47 13 -1 18 1 11 5 -7 4 -9 13 -4 20
6 10 10 10 20 -2 7 -8 10 -19 7 -24 -3 -5 1 -9 9 -9 21 0 19 10 -10 37 -21 20
-25 21 -31 6 -9 -23 -27 -20 -19 4 7 21 1 27 -10 10z"/>
<path d="M13454 1682 c3 -6 2 -13 -3 -17 -5 -3 -9 -14 -8 -25 1 -13 5 -16 13
-9 8 7 17 5 27 -6 19 -19 24 -19 24 0 0 14 -10 19 -30 16 -5 -1 -5 4 -1 11 6
9 3 9 -9 -1 -19 -15 -24 -2 -6 16 8 8 7 13 -2 18 -7 5 -10 4 -5 -3z"/>
<path d="M13490 1680 c-12 -7 -12 -12 -2 -22 9 -9 12 -9 12 4 0 9 6 19 13 21
6 3 8 6 2 6 -5 0 -17 -4 -25 -9z"/>
<path d="M13540 1686 c0 -2 7 -7 16 -10 8 -3 12 -2 9 4 -6 10 -25 14 -25 6z"/>
<path d="M13535 1660 c3 -5 8 -10 11 -10 2 0 4 5 4 10 0 6 -5 10 -11 10 -5 0
-7 -4 -4 -10z"/>
<path d="M13520 1629 c0 -5 4 -8 9 -4 6 3 14 -3 20 -12 9 -16 10 -15 8 5 -1
22 -37 33 -37 11z"/>
<path d="M13454 1604 c-18 -14 -18 -15 4 -4 12 6 22 13 22 15 0 8 -5 6 -26
-11z"/>
<path d="M13680 1610 c-19 -12 -22 -40 -3 -33 11 4 12 8 2 13 -8 6 -4 9 12 12
13 1 19 6 14 10 -6 4 -17 3 -25 -2z"/>
<path d="M13525 1600 c-3 -5 -1 -10 4 -10 6 0 11 5 11 10 0 6 -2 10 -4 10 -3
0 -8 -4 -11 -10z"/>
<path d="M13705 1580 c-3 -5 -1 -10 4 -10 6 0 11 5 11 10 0 6 -2 10 -4 10 -3
0 -8 -4 -11 -10z"/>
<path d="M13625 1570 c3 -5 8 -10 11 -10 2 0 4 5 4 10 0 6 -5 10 -11 10 -5 0
-7 -4 -4 -10z"/>
<path d="M13746 1553 c15 -33 24 -41 24 -24 0 5 -9 19 -20 32 l-20 24 16 -32z"/>
<path d="M13456 1561 c-3 -5 1 -11 9 -14 9 -4 12 -1 8 9 -6 16 -10 17 -17 5z"/>
<path d="M13524 1552 c4 -3 14 -7 22 -8 9 -1 13 0 10 4 -4 3 -14 7 -22 8 -9 1
-13 0 -10 -4z"/>
<path d="M13593 1545 c0 -8 4 -12 9 -9 5 3 6 10 3 15 -9 13 -12 11 -12 -6z"/>
<path d="M13650 1551 c0 -7 -4 -9 -10 -6 -5 3 -10 1 -10 -4 0 -6 4 -11 9 -11
13 0 25 20 17 27 -3 4 -6 1 -6 -6z"/>
<path d="M13674 1535 c-3 -8 -4 -20 -1 -27 3 -7 6 -3 6 10 1 12 6 22 12 22 5
0 8 -4 5 -9 -3 -5 1 -12 9 -15 13 -4 14 -2 5 14 -13 24 -28 26 -36 5z"/>
<path d="M13505 1531 c6 -11 4 -13 -10 -7 -18 7 -18 6 0 -14 22 -24 26 -25 19
-5 -8 19 0 19 20 -1 9 -9 16 -11 16 -4 0 6 5 8 13 4 8 -5 8 -3 -2 9 -7 9 -17
14 -23 11 -5 -3 -16 0 -25 8 -14 11 -16 11 -8 -1z"/>
<path d="M13650 1500 c0 -8 9 -21 20 -28 12 -7 18 -18 14 -24 -4 -7 -3 -8 5
-4 6 4 18 3 25 -3 10 -9 15 -8 20 5 4 10 2 14 -6 11 -19 -6 -50 12 -42 25 4 6
3 8 -4 4 -6 -3 -15 2 -21 11 -8 14 -10 15 -11 3z"/>
<path d="M13696 1495 c3 -8 10 -13 14 -10 5 3 11 -1 13 -7 4 -10 6 -10 6 -1 1
7 -8 17 -19 23 -16 9 -18 8 -14 -5z"/>
<path d="M13636 1458 c5 -7 2 -9 -8 -6 -8 4 -15 0 -15 -7 0 -10 5 -11 19 -4
20 11 24 29 7 29 -5 0 -7 -5 -3 -12z"/>
<path d="M13750 1449 c0 -5 5 -7 10 -4 6 3 10 8 10 11 0 2 -4 4 -10 4 -5 0
-10 -5 -10 -11z"/>
<path d="M13688 1403 c7 -3 16 -2 19 1 4 3 -2 6 -13 5 -11 0 -14 -3 -6 -6z"/>
<path d="M2160 3601 c-88 -28 -165 -96 -203 -180 -17 -37 -22 -72 -25 -178
l-4 -133 -282 0 -282 0 -54 -32 c-37 -22 -64 -49 -85 -82 l-30 -49 -3 -711
c-2 -521 0 -722 9 -754 15 -55 76 -123 136 -153 l48 -24 1135 0 1135 0 48 25
c55 27 101 76 126 129 14 32 16 113 16 756 0 719 0 720 -22 760 -12 22 -36 54
-55 72 -63 60 -78 63 -387 63 l-279 0 -4 133 c-3 120 -5 137 -31 189 -32 65
-89 121 -156 152 -44 20 -62 21 -386 23 -187 1 -351 -2 -365 -6z m717 -148
c19 -9 47 -34 61 -56 25 -37 27 -50 30 -164 l4 -123 -457 0 -457 0 4 123 c3
118 4 125 32 161 59 77 51 76 419 76 286 0 334 -2 364 -17z m-1424 -470 c-7
-2 -21 -2 -30 0 -10 3 -4 5 12 5 17 0 24 -2 18 -5z m795 0 c-141 -2 -375 -2
-520 0 -145 1 -29 2 257 2 286 0 404 -1 263 -2z m700 0 c-82 -2 -214 -2 -295
0 -82 1 -15 3 147 3 162 0 229 -2 148 -3z m270 0 c-21 -2 -57 -2 -80 0 -24 2
-7 4 37 4 44 0 63 -2 43 -4z m115 0 c-13 -2 -35 -2 -50 0 -16 2 -5 4 22 4 28
0 40 -2 28 -4z m150 0 c-24 -2 -62 -2 -85 0 -24 2 -5 4 42 4 47 0 66 -2 43 -4z
m125 0 c-10 -2 -26 -2 -35 0 -10 3 -2 5 17 5 19 0 27 -2 18 -5z m-2240 -26
c-15 -12 -34 -38 -42 -57 -9 -19 -15 -29 -16 -22 0 22 29 70 52 86 33 24 37
19 6 -7z m2342 -30 c0 -6 -5 -5 -12 4 -7 8 -22 23 -33 33 -15 14 -11 13 13 -3
17 -12 32 -27 32 -34z m-2393 -129 c-3 -8 -6 -5 -6 6 -1 11 2 17 5 13 3 -3 4
-12 1 -19z m0 -40 c-3 -8 -6 -5 -6 6 -1 11 2 17 5 13 3 -3 4 -12 1 -19z m0
-110 c-3 -8 -6 -5 -6 6 -1 11 2 17 5 13 3 -3 4 -12 1 -19z m0 -125 c-3 -10 -5
-4 -5 12 0 17 2 24 5 18 2 -7 2 -21 0 -30z m1266 -80 c-40 -2 -107 -2 -150 0
-43 1 -10 3 72 3 83 0 118 -2 78 -3z m102 -11 c-3 -3 -11 0 -18 7 -9 10 -8 11
6 5 10 -3 15 -9 12 -12z m1005 8 c-8 -5 -22 -9 -30 -9 -10 0 -8 3 5 9 27 12
43 12 25 0z m-2293 -6 c-3 -3 -12 -4 -19 -1 -8 3 -5 6 6 6 11 1 17 -2 13 -5z
m1349 -35 c3 -6 -5 -3 -20 6 -14 10 -26 19 -26 22 0 7 39 -17 46 -28z m891 25
c-3 -3 -12 -4 -19 -1 -8 3 -5 6 6 6 11 1 17 -2 13 -5z m-1339 -21 c-8 -10 -20
-27 -26 -38 -6 -11 -12 -15 -12 -9 0 12 38 64 47 64 3 0 -1 -8 -9 -17z m-741
-9 c-3 -3 -12 -4 -19 -1 -8 3 -5 6 6 6 11 1 17 -2 13 -5z m1950 0 c-3 -3 -12
-4 -19 -1 -8 3 -5 6 6 6 11 1 17 -2 13 -5z m-1900 -10 c-3 -3 -12 -4 -19 -1
-8 3 -5 6 6 6 11 1 17 -2 13 -5z m1161 -29 c-3 -3 -9 2 -12 12 -6 14 -5 15 5
6 7 -7 10 -15 7 -18z m605 8 c-7 -2 -19 -2 -25 0 -7 3 -2 5 12 5 14 0 19 -2
13 -5z m-1626 -9 c-3 -3 -12 -4 -19 -1 -8 3 -5 6 6 6 11 1 17 -2 13 -5z m60
-10 c-3 -3 -12 -4 -19 -1 -8 3 -5 6 6 6 11 1 17 -2 13 -5z m1460 0 c-3 -3 -12
-4 -19 -1 -8 3 -5 6 6 6 11 1 17 -2 13 -5z m-1404 -11 c-7 -2 -19 -2 -25 0 -7
3 -2 5 12 5 14 0 19 -2 13 -5z m394 -15 c-3 -8 -6 -5 -6 6 -1 11 2 17 5 13 3
-3 4 -12 1 -19z m556 -21 c31 -4 31 -4 -5 -5 -35 -2 -38 0 -37 26 1 22 2 23 6
5 3 -16 13 -23 36 -26z m394 37 c-3 -3 -12 -4 -19 -1 -8 3 -5 6 6 6 11 1 17
-2 13 -5z m-1264 -11 c-7 -2 -21 -2 -30 0 -10 3 -4 5 12 5 17 0 24 -2 18 -5z
m1190 0 c-7 -2 -21 -2 -30 0 -10 3 -4 5 12 5 17 0 24 -2 18 -5z m-1120 -10
c-7 -2 -19 -2 -25 0 -7 3 -2 5 12 5 14 0 19 -2 13 -5z m645 -126 l3 -127 -26
-10 c-35 -13 -221 -13 -246 0 -17 10 -19 22 -19 141 l0 130 143 -3 142 -3 3
-128z m389 127 c-3 -3 -12 -4 -19 -1 -8 3 -5 6 6 6 11 1 17 -2 13 -5z m-939
-11 c-10 -2 -28 -2 -40 0 -13 2 -5 4 17 4 22 1 32 -1 23 -4z m855 0 c-13 -2
-35 -2 -50 0 -16 2 -5 4 22 4 28 0 40 -2 28 -4z m-720 -10 c-13 -2 -35 -2 -50
0 -16 2 -5 4 22 4 28 0 40 -2 28 -4z m-926 -125 c-3 -8 -6 -5 -6 6 -1 11 2 17
5 13 3 -3 4 -12 1 -19z m0 -110 c-3 -7 -5 -2 -5 12 0 14 2 19 5 13 2 -7 2 -19
0 -25z m1460 -30 c-3 -7 -5 -2 -5 12 0 14 2 19 5 13 2 -7 2 -19 0 -25z m-505
-23 c9 -20 9 -20 -6 -1 -9 11 -16 27 -15 35 0 14 1 14 6 1 3 -8 10 -24 15 -35z
m29 -42 c13 -16 12 -17 -3 -4 -10 7 -18 15 -18 17 0 8 8 3 21 -13z m-984 -45
c-3 -7 -5 -2 -5 12 0 14 2 19 5 13 2 -7 2 -19 0 -25z m1271 5 c-43 -2 -113 -2
-155 0 -43 1 -8 3 77 3 85 0 120 -2 78 -3z m-1271 -65 c-3 -8 -6 -5 -6 6 -1
11 2 17 5 13 3 -3 4 -12 1 -19z m0 -170 c-3 -8 -6 -5 -6 6 -1 11 2 17 5 13 3
-3 4 -12 1 -19z m2381 -208 c-7 -10 -14 -17 -17 -15 -4 4 18 35 25 35 2 0 -1
-9 -8 -20z m-2347 -7 c13 -16 12 -17 -3 -4 -10 7 -18 15 -18 17 0 8 8 3 21
-13z m2305 -28 c-11 -8 -27 -15 -35 -15 -9 1 -2 7 14 15 39 18 44 18 21 0z
m-2217 -11 c10 -9 -35 -3 -49 6 -11 8 -7 9 15 4 17 -4 32 -8 34 -10z m84 -11
c-7 -2 -19 -2 -25 0 -7 3 -2 5 12 5 14 0 19 -2 13 -5z"/>
<path d="M4017 2112 c-22 -24 -21 -65 1 -85 17 -16 105 -17 1064 -17 1000 0
1046 1 1061 18 24 26 21 68 -5 86 -20 14 -137 16 -1064 16 -996 0 -1042 -1
-1057 -18z"/>
<path d="M9427 2112 c-22 -24 -21 -65 1 -85 17 -16 104 -17 1045 -17 919 0
1027 2 1041 16 22 21 20 67 -2 87 -17 16 -104 17 -1044 17 -980 0 -1026 -1
-1041 -18z"/>
</g>
</svg>
