
<svg xmlns="http://www.w3.org/2000/svg" viewBox="0 0 500 500" width="100%" height="100%">
  <style>
    .st0{fill:#0ea5e9}.st1{fill:#f3f4f6}.st2{fill:#0369a1}.st3{fill:#fecdd3}.st4{fill:#fef3c7}.st5{fill:#ffedd5}.st6{fill:#fed7aa}
  </style>
  <g>
    <path class="st0" d="M389.1,131.2c-0.2-0.3-0.5-0.7-0.8-1l-4.9-5.6c-0.5-0.5-1.1-1-1.8-1.3l-39.8-19.9c-0.4-0.2-0.8-0.3-1.2-0.4l-37.6-7.5c-1.7-0.3-3.4,0.2-4.7,1.4l-2.3,2.1c-2.6,2.3-3.9,5.7-3.6,9.2l2.2,21.5l14.1,4.7c2.4,0.8,4.9,0.8,7.3,0l29-9.7l33.2,16.6l11.8-3.9C391.9,135.7,390.9,133.2,389.1,131.2z"/>
    <path class="st1" d="M195.2,422.5h158.8c5,0,9-4,9-9v-87.3c0-5-4-9-9-9H195.2c-5,0-9,4-9,9v87.3C186.2,418.5,190.2,422.5,195.2,422.5z"/>
    <path class="st2" d="M235.1,317.3h78.9c3,0,5.4,2.4,5.4,5.4v5.4c0,3-2.4,5.4-5.4,5.4h-78.9c-3,0-5.4-2.4-5.4-5.4v-5.4C229.7,319.7,232.1,317.3,235.1,317.3z"/>
    <path class="st3" d="M434.6,290.9l-44.9-149.6c-0.8-2.6-3.2-4.5-6-4.5h-13v-9.7c0-12.1-9.8-22-22-22h-35.5c-12.1,0-22,9.8-22,22v9.7h-13c-2.8,0-5.2,1.8-6,4.5l-44.9,149.6c-0.5,1.5-0.3,3.1,0.4,4.5c0.7,1.4,2,2.4,3.5,2.8l23,6.9h154l23-6.9c1.5-0.5,2.8-1.5,3.5-2.8C434.9,294,435.1,292.4,434.6,290.9z M304.3,127.1c0-5,4.1-9,9-9h35.5c5,0,9,4.1,9,9v9.7h-53.5V127.1z"/>
    <path class="st4" d="M413,297.1l-15.5-5.2c-1.7-0.6-3-2.1-3.3-3.9l-4.1-23.6c-0.3-1.8-1.6-3.3-3.3-3.9l-14.8-5c-1.7-0.6-2.9-2.1-3.3-3.9l-4.1-23.6c-0.3-1.8-1.6-3.3-3.3-3.9l-14.8-5c-1.7-0.6-2.9-2.1-3.3-3.9l-4.1-23.6c-0.3-1.8-1.6-3.3-3.3-3.9l-14.8-5c-1.7-0.6-2.9-2.1-3.3-3.9l-4.1-23.6c-0.3-1.8-1.6-3.3-3.3-3.9l-16.5-5.5l-31.5,148H368l27.8-4.4c1.6-0.3,2.9-1.3,3.6-2.7C400.1,303.9,400.1,302.1,413,297.1z"/>
    <path class="st5" d="M146.9,321.8v100.8h233.4V321.8c0-6.9-5.6-12.5-12.5-12.5H159.4C153.6,309.3,146.9,315,146.9,321.8z"/>
    <path class="st0" d="M191.2,390.1h26.1c1.3,0,2.4-1.1,2.4-2.4v-26.1c0-1.3-1.1-2.4-2.4-2.4h-26.1c-1.3,0-2.4,1.1-2.4,2.4v26.1C188.8,389,189.8,390.1,191.2,390.1z"/>
    <path class="st0" d="M309.9,390.1H336c1.3,0,2.4-1.1,2.4-2.4v-26.1c0-1.3-1.1-2.4-2.4-2.4h-26.1c-1.3,0-2.4,1.1-2.4,2.4v26.1C307.5,389,308.5,390.1,309.9,390.1z"/>
    <g>
      <path class="st6" d="M193.6,183.4l-10.7,112h161.4l-10.7-112L193.6,183.4L193.6,183.4z"/>
      <path class="st5" d="M146.9,422.5h233.4c5,0,9,4,9,9l0,0c0,5-4,9-9,9H146.9c-5,0-9-4-9-9l0,0C137.9,426.5,141.9,422.5,146.9,422.5z"/>
      <path class="st5" d="M259,101.4v37.7c0,11.7,9.5,21.2,21.2,21.2h56.7v-30c0-11.7-9.5-21.2-21.2-21.2h-35.5C270.5,109.1,259,101.4,259,101.4z"/>
      <circle class="st6" cx="263.6" cy="183.4" r="45.5"/>
      <path class="st5" d="M220.6,193.1c-4.7,33.3,45.5,46.7,86,15.3c0,0-6.7,18.7-43.3,18.7C225,227.1,220.6,193.1,220.6,193.1z"/>
      <path class="st1" d="M232.6,152.4c0,0-1.3,28.7,31.3,25.3c29-3,31.3-25.3,31.3-25.3s-16.7-3.3-31.3-3.3C249.6,149.1,232.6,152.4,232.6,152.4z"/>
      <path class="st5" d="M212.6,101.4c0,0,19.3,17.3,50.7,17.3c31.3,0,50.7-17.3,50.7-17.3s-11.7,47.7-50.7,47.7S212.6,101.4,212.6,101.4z"/>
      <path class="st5" d="M263.6,109.1c33.3,0,49.3-38.7,49.3-38.7s-16.7,14-49.3,14c-32.7,0-49.3-14-49.3-14S229,109.1,263.6,109.1z"/>
    </g>
  </g>
</svg>
